<svg width="512" height="528" viewBox="0 0 512 528" fill="none" xmlns="http://www.w3.org/2000/svg">
<g clip-path="url(#clip0_340_641)">
<path d="M509.906 296.506C527.823 156.243 428.769 28.0105 288.762 10.0938C148.755 -7.82301 20.0105 91.2312 2.09376 231.238C-15.823 371.245 83.2312 499.734 223.238 517.906C363.501 535.823 491.734 436.769 509.906 296.506Z" fill="#FF6C37"/>
<path d="M348.399 172.369L240.387 280.381L209.928 249.923C316.149 143.702 326.643 152.916 348.399 172.369Z" fill="white"/>
<path d="M240.387 282.941C239.619 282.941 239.107 282.685 238.595 282.173L207.881 251.714C206.857 250.69 206.857 249.155 207.881 248.131C315.893 140.118 327.155 150.357 349.935 170.833C350.447 171.345 350.703 171.857 350.703 172.625C350.703 173.392 350.447 173.904 349.935 174.416L241.923 282.173C241.667 282.685 240.899 282.941 240.387 282.941ZM213.512 249.923L240.387 276.798L344.56 172.625C325.619 155.732 312.822 150.612 213.512 249.923Z" fill="#FF6C37"/>
<path d="M271.357 311.352L241.922 281.917L349.935 173.904C378.858 203.083 335.602 250.434 271.357 311.352Z" fill="white"/>
<path d="M271.357 313.911C270.589 313.911 270.077 313.655 269.565 313.143L240.131 283.709C239.619 283.197 239.619 282.685 239.619 281.917C239.619 281.149 239.875 280.637 240.387 280.125L348.399 172.113C349.423 171.089 350.959 171.089 351.982 172.113C358.637 178.256 362.221 186.958 361.965 195.916C361.453 224.327 329.203 260.417 273.405 313.143C272.637 313.655 271.869 313.911 271.357 313.911ZM245.506 281.917C261.887 298.554 268.797 305.209 271.357 307.768C314.357 266.816 356.078 224.839 356.334 195.916C356.59 189.262 354.03 182.607 349.679 177.488L245.506 281.917Z" fill="#FF6C37"/>
<path d="M210.44 250.69L232.196 272.447C232.708 272.958 232.708 273.47 232.196 273.982C231.94 274.238 231.94 274.238 231.684 274.238L186.636 283.964C184.333 284.22 182.285 282.685 181.773 280.381C181.517 279.101 182.029 277.822 182.797 277.054L208.904 250.946C209.416 250.435 210.184 250.179 210.44 250.69Z" fill="white"/>
<path d="M185.869 286.524C182.029 286.524 179.214 283.453 179.214 279.613C179.214 277.822 179.982 276.03 181.261 274.75L207.369 248.643C208.905 247.363 210.952 247.363 212.488 248.643L234.244 270.399C235.78 271.679 235.78 273.982 234.244 275.518C233.732 276.03 233.22 276.286 232.452 276.542L187.404 286.268C186.892 286.268 186.381 286.524 185.869 286.524ZM209.672 253.506L184.589 278.589C184.077 279.101 183.821 279.869 184.333 280.637C184.589 281.405 185.357 281.661 186.125 281.405L228.357 272.191L209.672 253.506Z" fill="#FF6C37"/>
<path d="M405.477 112.475C389.096 96.6062 362.733 97.1181 346.863 113.755C330.994 130.392 331.506 156.499 348.143 172.369C361.709 185.422 382.185 187.726 398.31 178L369.131 148.821L405.477 112.475Z" fill="white"/>
<path d="M376.81 186.446C352.495 186.446 332.786 166.738 332.786 142.422C332.786 118.106 352.495 98.3979 376.81 98.3979C388.072 98.3979 399.078 102.749 407.269 110.684C407.781 111.196 408.037 111.707 408.037 112.475C408.037 113.243 407.781 113.755 407.269 114.267L372.715 148.821L399.846 175.952C400.87 176.976 400.87 178.511 399.846 179.535C399.59 179.791 399.59 179.791 399.334 180.047C392.679 184.142 384.745 186.446 376.81 186.446ZM376.81 103.773C355.31 103.773 337.905 121.178 338.161 142.678C338.161 164.178 355.566 181.583 377.066 181.327C382.953 181.327 388.84 180.047 394.215 177.232L367.34 150.612C366.828 150.101 366.572 149.589 366.572 148.821C366.572 148.053 366.828 147.541 367.34 147.029L401.638 112.731C394.727 106.844 386.025 103.773 376.81 103.773Z" fill="#FF6C37"/>
<path d="M406.245 113.243L405.733 112.731L369.131 148.821L398.054 177.744C400.87 175.952 403.685 173.904 405.989 171.601C422.37 155.476 422.37 129.368 406.245 113.243Z" fill="white"/>
<path d="M398.31 180.559C397.542 180.559 397.03 180.303 396.518 179.791L367.34 150.612C366.828 150.101 366.572 149.589 366.572 148.821C366.572 148.053 366.828 147.541 367.34 147.029L403.685 110.684C404.709 109.66 406.245 109.66 407.268 110.684L408.036 111.196C425.185 128.344 425.185 155.988 408.292 173.392C405.733 175.952 402.917 178.256 399.846 180.047C399.078 180.303 398.566 180.559 398.31 180.559ZM372.715 148.821L398.566 174.672C400.614 173.392 402.661 171.601 404.197 170.065C418.786 155.476 419.554 131.672 405.477 116.315L372.715 148.821Z" fill="#FF6C37"/>
<path d="M352.75 176.976C346.608 170.833 336.625 170.833 330.482 176.976L233.988 273.47L250.113 289.595L352.239 200.012C358.893 194.381 359.405 184.398 353.774 177.744C353.262 177.488 353.006 177.232 352.75 176.976Z" fill="white"/>
<path d="M249.857 292.155C249.089 292.155 248.577 291.899 248.065 291.387L231.94 275.262C230.916 274.238 230.916 272.702 231.94 271.679L328.435 175.184C335.602 168.017 347.12 168.017 354.286 175.184C361.453 182.351 361.453 193.869 354.286 201.035C354.03 201.291 353.774 201.547 353.518 201.803L251.393 291.387C251.137 291.899 250.625 292.155 249.857 292.155ZM237.571 273.47L250.113 286.012L350.447 197.964C356.078 193.357 356.59 184.91 351.983 179.279C347.375 173.648 338.929 173.136 333.298 177.744C333.042 178 332.786 178.256 332.274 178.511L237.571 273.47Z" fill="#FF6C37"/>
<path d="M160.017 383.275C158.993 383.786 158.481 384.81 158.737 385.834L163.088 404.263C164.112 406.822 162.577 409.894 159.761 410.662C157.713 411.43 155.41 410.662 154.13 409.126L125.975 381.227L217.863 289.34L249.601 289.851L271.101 311.352C265.982 315.703 235.011 345.649 160.017 383.275Z" fill="white"/>
<path d="M157.97 413.221C155.922 413.221 153.874 412.453 152.595 410.918L124.696 383.019C124.184 382.507 123.928 381.995 123.928 381.227C123.928 380.459 124.184 379.947 124.696 379.435L216.583 287.548C217.095 287.036 217.863 286.78 218.375 286.78L250.113 287.292C250.881 287.292 251.393 287.548 251.905 288.06L273.405 309.56C273.917 310.072 274.173 310.84 274.173 311.608C274.173 312.375 273.917 312.887 273.149 313.399L271.357 314.935C244.226 338.739 207.369 362.542 161.553 385.322L165.904 403.495C166.672 406.822 165.136 410.406 162.065 412.197C160.529 412.965 159.249 413.221 157.97 413.221ZM129.815 381.227L156.178 407.334C156.946 408.614 158.482 409.126 159.761 408.358C161.041 407.59 161.553 406.054 160.785 404.775L156.434 386.346C155.922 384.042 156.946 381.995 158.993 380.971C204.297 358.191 240.899 334.643 267.774 311.352L248.833 292.411L219.399 291.899L129.815 381.227Z" fill="#FF6C37"/>
<path d="M104.219 403.239L126.231 381.227L158.993 413.989L106.779 410.406C104.475 410.15 102.939 408.102 103.195 405.799C103.195 404.775 103.451 403.751 104.219 403.239Z" fill="white"/>
<path d="M158.993 416.293L106.523 412.709C102.683 412.453 100.124 409.126 100.38 405.287C100.636 403.751 101.148 402.215 102.428 401.191L124.44 379.179C125.463 378.156 126.999 378.156 128.023 379.179L160.785 411.941C161.553 412.709 161.809 413.733 161.297 414.757C160.785 415.781 160.017 416.293 158.993 416.293ZM126.231 384.81L106.011 405.031C105.243 405.543 105.243 406.822 106.011 407.334C106.267 407.59 106.523 407.846 107.035 407.846L152.339 410.918L126.231 384.81Z" fill="#FF6C37"/>
<path d="M208.904 301.113C207.369 301.113 206.345 299.834 206.345 298.554C206.345 297.786 206.601 297.274 207.113 296.762L231.94 271.935C232.964 270.911 234.5 270.911 235.523 271.935L251.649 288.06C252.416 288.828 252.672 289.595 252.416 290.619C252.16 291.387 251.393 292.155 250.369 292.411L209.416 301.113C209.16 301.113 208.904 301.113 208.904 301.113ZM233.732 277.31L216.839 294.203L244.482 288.316L233.732 277.31Z" fill="#FF6C37"/>
<path d="M249.601 289.851L221.446 295.994C219.398 296.506 217.351 295.226 216.839 293.179C216.583 291.899 216.839 290.619 217.863 289.595L233.476 273.982L249.601 289.851Z" fill="white"/>
<path d="M220.934 298.554C217.351 298.554 214.535 295.738 214.535 292.155C214.535 290.363 215.303 288.828 216.327 287.548L231.94 271.935C232.964 270.911 234.5 270.911 235.523 271.935L251.648 288.06C252.416 288.828 252.672 289.595 252.416 290.619C252.16 291.387 251.393 292.155 250.369 292.411L222.214 298.554C221.702 298.554 221.19 298.554 220.934 298.554ZM233.732 277.31L219.91 291.131C219.398 291.643 219.398 292.155 219.654 292.667C219.91 293.179 220.422 293.435 221.19 293.435L244.738 288.316L233.732 277.31Z" fill="#FF6C37"/>
<path d="M406.501 137.815C405.989 136.279 404.197 135.511 402.661 136.023C401.126 136.535 400.358 138.327 400.87 139.862C400.87 140.118 401.126 140.374 401.126 140.63C402.662 143.702 402.15 147.541 400.102 150.357C399.078 151.636 399.334 153.428 400.358 154.452C401.638 155.476 403.429 155.22 404.453 153.94C408.292 149.077 409.06 142.934 406.501 137.815Z" fill="#FF6C37"/>
</g>
<defs>
<clipPath id="clip0_340_641">
<rect width="512" height="528" fill="white"/>
</clipPath>
</defs>
</svg>
